<?xml version="1.0" encoding="utf-8"?>
<!-- Generator: Adobe Illustrator 21.0.2, SVG Export Plug-In . SVG Version: 6.00 Build 0)  -->
<svg version="1.1" id="Ebene_1" xmlns="http://www.w3.org/2000/svg" xmlns:xlink="http://www.w3.org/1999/xlink" x="0px" y="0px"
	 viewBox="0 0 841.9 595.3" enable-background="new 0 0 841.9 595.3" xml:space="preserve">
<ellipse fill="none" stroke="#000000" stroke-miterlimit="10" cx="342.9" cy="157.5" rx="167.5" ry="44.4"/>
<ellipse fill="none" stroke="#000000" stroke-miterlimit="10" cx="343.7" cy="374" rx="167.5" ry="44.4"/>
<line fill="none" stroke="#000000" stroke-miterlimit="10" x1="175.5" y1="157.5" x2="175.5" y2="374"/>
<line fill="none" stroke="#000000" stroke-miterlimit="10" x1="510.9" y1="157.5" x2="510.9" y2="374"/>
<g id="Ebene_2">
	<path fill="none" stroke="#000000" stroke-miterlimit="10" d="M242.9,308.7c1-5.2,26.5-24.2,26.7-26.7c0.1-2.5-26.5-23.6-26.7-26.7
		c-0.1-3.1,26.1-24,26.7-26.7c0.6-2.7-23.6-34.1-20.2-34.3"/>
	<path fill="none" stroke="#000000" stroke-miterlimit="10" d="M297,199.7c-1,5.2-29.3,26.4-29.5,28.9c-0.1,2.5,26.5,23.6,26.7,26.7
		c0.1,3.1-26.1,24-26.7,26.7s30.1,26.5,26.7,26.7"/>
	<path fill="none" stroke="#000000" stroke-miterlimit="10" d="M292.6,308.7c1-5.2,26.5-24.2,26.7-26.7c0.1-2.5-26.5-23.6-26.7-26.7
		c-0.1-3.1,26.1-24,26.7-26.7c0.6-2.7-32.4-28.8-29-28.9"/>
	<path fill="none" stroke="#000000" stroke-miterlimit="10" d="M343.9,201.9c-1,5.2-26.5,24.2-26.7,26.7
		c-0.1,2.5,26.5,23.6,26.7,26.7c0.1,3.1-26.1,24-26.7,26.7c-0.6,2.7,30.1,26.5,26.7,26.7"/>
	<path fill="none" stroke="#000000" stroke-miterlimit="10" d="M176.2,291c1-5.2,43.3-6.2,43.5-8.8c0.1-2.5-44.1-46.8-44.2-49.9
		c-0.1-3.1,43.6-0.8,44.2-3.5c0.6-2.7-46.9-65-43.5-65.2"/>
	<path fill="none" stroke="#000000" stroke-miterlimit="10" d="M249.4,194.3c-1,5.2-31.6,32-31.8,34.5c-0.1,2.5,26.5,23.6,26.7,26.7
		c0.1,3.1-26.1,24-26.7,26.7c-0.6,2.7,30.1,26.5,26.7,26.7"/>
	<path fill="none" stroke="#000000" stroke-miterlimit="10" d="M243.1,415.4c1-5.2,26.5-24.2,26.7-26.7c0.1-2.5-26.5-23.6-26.7-26.7
		c-0.1-3.1,26.1-24,26.7-26.7c0.6-2.7-30.1-26.5-26.7-26.7"/>
	<path fill="none" stroke="#000000" stroke-miterlimit="10" d="M294.4,308.7c-1,5.2-26.5,24.2-26.7,26.7
		c-0.1,2.5,26.5,23.6,26.7,26.7c0.1,3.1-26.1,24-26.7,26.7s30.1,26.5,26.7,26.7"/>
	<path fill="none" stroke="#000000" stroke-miterlimit="10" d="M292.8,415.4c1-5.2,26.5-24.2,26.7-26.7c0.1-2.5-26.5-23.6-26.7-26.7
		c-0.1-3.1,26.1-24,26.7-26.7c0.6-2.7-30.1-26.5-26.7-26.7"/>
	<path fill="none" stroke="#000000" stroke-miterlimit="10" d="M344.1,308.7c-1,5.2-26.5,24.2-26.7,26.7
		c-0.1,2.5,26.5,23.6,26.7,26.7c0.1,3.1-26.1,24-26.7,26.7c-0.6,2.7,30.1,26.5,26.7,26.7"/>
	<path fill="none" stroke="#000000" stroke-miterlimit="10" d="M193.2,415.7c1-5.2,26.5-24.2,26.7-26.7c0.1-2.5-26.5-23.6-26.7-26.7
		c-0.1-3.1,26.1-24,26.7-26.7c0.6-2.7-47.1-44.5-43.6-44.6"/>
	<path fill="none" stroke="#000000" stroke-miterlimit="10" d="M244.5,308.9c-1,5.2-26.5,24.2-26.7,26.7
		c-0.1,2.5,26.5,23.6,26.7,26.7c0.1,3.1-26.1,24-26.7,26.7c-0.6,2.7,30.1,26.5,26.7,26.7"/>
	<path fill="none" stroke="#000000" stroke-miterlimit="10" d="M388.4,415.6c1-5.2,26.5-24.2,26.7-26.7c0.1-2.5-26.5-23.6-26.7-26.7
		c-0.1-3.1,26.1-24,26.7-26.7c0.6-2.7-30.1-26.5-26.7-26.7"/>
	<path fill="none" stroke="#000000" stroke-miterlimit="10" d="M439.7,308.8c-1,5.2-26.5,24.2-26.7,26.7
		c-0.1,2.5,26.5,23.6,26.7,26.7c0.1,3.1-26.1,24-26.7,26.7s30.1,26.5,26.7,26.7"/>
	<path fill="none" stroke="#000000" stroke-miterlimit="10" d="M438.1,415.6c1-5.2,26.5-24.2,26.7-26.7c0.1-2.5-26.5-23.6-26.7-26.7
		c-0.1-3.1,26.1-24,26.7-26.7c0.6-2.7-30.1-26.5-26.7-26.7"/>
	<path fill="none" stroke="#000000" stroke-miterlimit="10" d="M489.4,308.8c-1,5.2-26.5,24.2-26.7,26.7
		c-0.1,2.5,26.5,23.6,26.7,26.7c0.1,3.1-26.1,24-26.7,26.7c-0.6,2.7,30.1,26.5,26.7,26.7"/>
	<path fill="none" stroke="#000000" stroke-miterlimit="10" d="M341.5,415.8c1-5.2,26.5-24.2,26.7-26.7s-26.5-23.6-26.7-26.7
		c-0.1-3.1,26.1-24,26.7-26.7c0.6-2.7-30.1-26.5-26.7-26.7"/>
	<path fill="none" stroke="#000000" stroke-miterlimit="10" d="M391.8,309.1c-1,5.2-26.5,24.2-26.7,26.7
		c-0.1,2.5,26.5,23.6,26.7,26.7c0.1,3.1-26.1,24-26.7,26.7s30.1,26.5,26.7,26.7"/>
	<path fill="none" stroke="#000000" stroke-miterlimit="10" d="M388.4,308.8c1-5.2,26.5-24.2,26.7-26.7c0.1-2.5-26.5-23.6-26.7-26.7
		c-0.1-3.1,26.1-24,26.7-26.7c0.6-2.7-30.1-26.5-26.7-26.7"/>
	<path fill="none" stroke="#000000" stroke-miterlimit="10" d="M439.7,202c-1,5.2-26.5,24.2-26.7,26.7c-0.1,2.5,26.5,23.6,26.7,26.7
		c0.1,3.1-26.1,24-26.7,26.7s30.1,26.5,26.7,26.7"/>
	<path fill="none" stroke="#000000" stroke-miterlimit="10" d="M438.1,308.8c1-5.2,26.5-24.2,26.7-26.7s-26.5-23.6-26.7-26.7
		c-0.1-3.1,26.1-24,26.7-26.7c0.6-2.7-30.1-26.5-26.7-26.7"/>
	<path fill="none" stroke="#000000" stroke-miterlimit="10" d="M489.4,202c10.3-7.7-26.5,24.2-26.7,26.7
		c-0.1,2.5,26.5,23.6,26.7,26.7c0.1,3.1-26.1,24-26.7,26.7c-0.6,2.7,30.1,26.5,26.7,26.7"/>
	<path fill="none" stroke="#000000" stroke-miterlimit="10" d="M341.5,309.1c1-5.2,26.5-24.2,26.7-26.7c0.1-2.5-26.5-23.6-26.7-26.7
		c-0.1-3.1,26.1-24,26.7-26.7c0.6-2.7-30.1-26.5-26.7-26.7"/>
	<path fill="none" stroke="#000000" stroke-miterlimit="10" d="M391.8,202.3c-1,5.2-26.5,24.2-26.7,26.7
		c-0.1,2.5,26.5,23.6,26.7,26.7c0.1,3.1-26.1,24-26.7,26.7s30.1,26.5,26.7,26.7"/>
</g>
</svg>
